<?xml version="1.0" encoding="UTF-8" standalone="no"?>
<svg
   xmlns:dc="http://purl.org/dc/elements/1.1/"
   xmlns:cc="http://creativecommons.org/ns#"
   xmlns:rdf="http://www.w3.org/1999/02/22-rdf-syntax-ns#"
   xmlns:svg="http://www.w3.org/2000/svg"
   xmlns="http://www.w3.org/2000/svg"
   xmlns:sodipodi="http://sodipodi.sourceforge.net/DTD/sodipodi-0.dtd"
   xmlns:inkscape="http://www.inkscape.org/namespaces/inkscape"
   width="835"
   height="843"
   viewBox="0 0 835 843"
   fill="none"
   id="svg2"
   version="1.1"
   inkscape:version="0.91 r13725"
   sodipodi:docname="D-background-opacity.svg">
  <metadata
     id="metadata57">
    <rdf:RDF>
      <cc:Work
         rdf:about="">
        <dc:format>image/svg+xml</dc:format>
        <dc:type
           rdf:resource="http://purl.org/dc/dcmitype/StillImage" />
      </cc:Work>
    </rdf:RDF>
  </metadata>
  <sodipodi:namedview
     pagecolor="#ffffff"
     bordercolor="#666666"
     borderopacity="1"
     objecttolerance="10"
     gridtolerance="10"
     guidetolerance="10"
     inkscape:pageopacity="0"
     inkscape:pageshadow="2"
     inkscape:window-width="1855"
     inkscape:window-height="1056"
     id="namedview55"
     showgrid="false"
     inkscape:zoom="0.5599051"
     inkscape:cx="561.03372"
     inkscape:cy="202.14394"
     inkscape:window-x="65"
     inkscape:window-y="24"
     inkscape:window-maximized="1"
     inkscape:current-layer="svg2" />
  <g
     id="g4"
     style="opacity:0.2">
    <path
       d="m 563.032,230.781 191.196,0 0,191.051 -191.196,0 0,-191.051 z"
       id="path6"
       inkscape:connector-curvature="0"
       style="fill:#f9e050" />
    <path
       d="m 281.466,703.18 191.196,0 0,139.724 -191.196,0 0,-139.724 z"
       id="path8"
       inkscape:connector-curvature="0"
       style="fill:#f4f464" />
    <path
       d="m 422.248,562.507 191.196,0 0,191.05 -191.196,0 0,-191.05 z m -422.24800129987,0 140.78100129987,0 0,140.674 -140.781000342753,0 -9.57117e-7,-140.674 z M 281.467,422.023 l 140.781,0 0,140.674 -140.781,0 0,-140.674 z"
       id="path10"
       inkscape:connector-curvature="0"
       style="fill:#f4f464" />
    <path
       d="m 563.031,90.4857 191.196,0 0,191.0503 -191.196,0 0,-191.0503 z"
       id="path12"
       inkscape:connector-curvature="0"
       style="fill:#f9b038" />
    <path
       d="m 512.707,-5.49316e-4 241.421,-1.64e-6 0,140.674550956 -241.421,0 0,-140.674549316 z"
       id="path14"
       inkscape:connector-curvature="0"
       style="fill:#f6842d" />
    <path
       d="m 140.783,-3.66211e-4 140.781,-9.56e-7 0,140.674367167 -140.781,0 0,-140.674366211 z"
       id="path16"
       inkscape:connector-curvature="0"
       style="fill:#f9e050" />
    <path
       d="m 563.031,652.803 191.196,0 0,190.101 -191.196,0 0,-190.101 z"
       id="path18"
       inkscape:connector-curvature="0"
       style="fill:#f6842d" />
    <path
       d="m 281.465,140.768 140.781,0 0,140.674 -140.781,0 0,-140.674 z"
       id="path20"
       inkscape:connector-curvature="0"
       style="fill:#f4f464" />
    <path
       d="m 702.953,512.129 191.196,0 0,191.05 -191.196,0 0,-191.05 z"
       id="path22"
       inkscape:connector-curvature="0"
       style="fill:#f4ac2b" />
    <path
       d="m 702.953,371.742 191.196,0 0,191.051 -191.196,0 0,-191.051 z"
       id="path24"
       inkscape:connector-curvature="0"
       style="fill:#f6842d" />
    <path
       d="m 702.953,230.781 191.196,0 0,191.051 -191.196,0 0,-191.051 z"
       id="path26"
       inkscape:connector-curvature="0"
       style="fill:#f4ac2b" />
    <path
       d="m 702.953,90.4865 191.196,-1e-4 0,191.0506 -191.196,0 0,-191.0505 z"
       id="path28"
       inkscape:connector-curvature="0"
       style="fill:#f6842d" />
    <path
       d="m 703.904,842.904 0,-139.723 139.829,0 0,-562.507 -140.781,0 0,-140.674183105 377.348,-2.564e-6 C 1137,-1.86054e-4 1186.08,6.46331 1227.36,19.4852 c 41.28,12.8318 75.15,35.4536 101.78,67.7707 26.64,32.3171 46.61,76.0401 59.55,131.1691 12.94,54.939 19.31,124.801 19.31,209.776 0,85.735 -5.99,155.312 -18.07,208.54 -12.18,54.178 -31.2,96.286 -57.08,126.226 -25.64,31.038 -60.53,53.083 -99.59,62.923 -40.43,11.406 -89.42,17.11 -146.77,17.11 l -242.852,0 -139.734,-0.096 z m 286.603,-115.295 91.033,0 c 31.39,0 58.59,-3.612 81.23,-10.836 23.66,-6.652 43.72,-22.365 55.84,-43.723 14.65,-21.862 25.11,-52.563 31.58,-92.199 7.33,-39.636 10.94,-92.198 10.94,-157.783 0,-65.394 -3.8,-118.337 -11.03,-158.734 -6.38,-39.636 -16.84,-70.717 -31.39,-93.339 -13.45,-20.889 -33.56,-36.631 -57.08,-44.673 -22.83,-7.319 -49.46,-10.931 -80.19,-10.931 l -90.933,0 0,612.218 z"
       id="path30"
       inkscape:connector-curvature="0"
       style="fill:#f14d34" />
    <path
       d="m 563.03,562.505 140.781,0 0,140.674 -140.781,0 0,-140.674 z"
       id="path32"
       inkscape:connector-curvature="0"
       style="fill:#f9e050" />
    <path
       d="m 422.248,6.10352e-5 140.781,-9.564e-7 0,140.6739399212 -140.781,0 0,-140.6739389648 z"
       id="path34"
       inkscape:connector-curvature="0"
       style="fill:#f9b038" />
    <path
       d="m 422.248,703.18 140.781,0 0,139.724 -140.781,0 0,-139.724 z"
       id="path36"
       inkscape:connector-curvature="0"
       style="fill:#f9e050" />
  </g>
  <defs
     id="defs38">
    <filter
       id="filter0_d"
       x="-22.1411"
       y="-0.000488281"
       width="1452.28"
       height="922.339"
       filterUnits="userSpaceOnUse"
       color-interpolation-filters="sRGB">
      <feFlood
         flood-opacity="0"
         result="BackgroundImageFix"
         id="feFlood41" />
      <feColorMatrix
         in="SourceAlpha"
         type="matrix"
         values="0 0 0 0 0 0 0 0 0 0 0 0 0 0 0 0 0 0 127 0"
         id="feColorMatrix43" />
      <feOffset
         dy="57.1978"
         id="feOffset45" />
      <feGaussianBlur
         stdDeviation="11.0705"
         id="feGaussianBlur47" />
      <feColorMatrix
         type="matrix"
         values="0 0 0 0 0 0 0 0 0 0.0495833 0 0 0 0 0.145833 0 0 0 0.25 0"
         id="feColorMatrix49" />
      <feBlend
         mode="normal"
         in2="BackgroundImageFix"
         result="effect1_dropShadow"
         id="feBlend51" />
      <feBlend
         mode="normal"
         in="SourceGraphic"
         in2="effect1_dropShadow"
         result="shape"
         id="feBlend53" />
    </filter>
  </defs>
</svg>
