<svg width="469" height="213" viewBox="0 0 469 213" fill="none" xmlns="http://www.w3.org/2000/svg">
<g filter="url(#filter0_dd)">
<mask id="mask0" mask-type="alpha" maskUnits="userSpaceOnUse" x="9" y="0" width="507" height="366">
<path d="M228.876 259.557L289.848 245.036L275.327 184.064L214.354 198.585L228.876 259.557Z" fill="#F9E050"/>
<path d="M103.179 130.181L164.151 115.659L153.531 71.0677L92.5591 85.5889L103.179 130.181Z" fill="#F4F464"/>
<path d="M158.767 164.382L219.739 149.861L205.218 88.8889L144.246 103.41L158.767 164.382ZM24.1121 196.452L69.0071 185.76L58.3149 140.865L13.4199 151.557L24.1121 196.452ZM124.55 219.909L169.445 209.217L158.752 164.322L113.857 175.014L124.55 219.909Z" fill="#F4F464"/>
<path d="M196.8 124.874L257.772 110.353L243.323 49.6839L182.351 64.2051L196.8 124.874Z" fill="#F6842D"/>
<path d="M252.112 159.143L313.085 144.622L298.564 83.6497L237.591 98.1709L252.112 159.143Z" fill="#F4AC2B"/>
<path d="M262.782 203.946L323.755 189.425L309.234 128.452L248.261 142.974L262.782 203.946Z" fill="#F6842D"/>
<path d="M273.497 248.93L334.469 234.409L319.948 173.437L258.976 187.958L273.497 248.93Z" fill="#F4AC2B"/>
<path d="M227.275 53.5069L237.895 98.0986L282.486 87.4786L325.241 266.998L280.346 277.69L291.038 322.585L411.375 293.926C429.454 289.62 444.615 283.829 456.791 276.538C468.981 269.308 478.06 259.516 484.098 247.18C490.135 234.843 493.182 219.372 493.117 200.795C493.067 182.28 489.789 159.5 483.331 132.381C476.814 105.019 469.615 83.2693 461.717 67.1995C453.716 50.8336 444.449 38.8404 433.922 31.25C423.385 23.2922 410.582 18.9068 397.379 18.7326C383.62 18.1629 367.564 20.0634 349.273 24.4198L271.829 42.8638L227.275 53.5069ZM327.436 68.5353L356.466 61.6215C366.476 59.2374 375.426 58.3239 383.195 58.9099C391.243 59.2365 398.837 62.7273 404.325 68.623C410.658 74.4874 416.328 83.4907 421.403 95.649C426.752 107.742 431.9 124.243 436.884 145.173C441.855 166.043 444.666 183.229 445.431 196.67C446.411 209.803 445.436 220.518 442.515 228.842C439.814 236.53 434.598 243.082 427.709 247.434C420.985 251.504 412.766 254.68 402.968 257.013L373.968 263.92L327.436 68.5353Z" fill="#F14D34"/>
<path d="M203.662 153.69L248.557 142.998L237.865 98.1027L192.97 108.795L203.662 153.69Z" fill="#F9E050"/>
<path d="M148.075 119.489L192.97 108.797L182.35 64.2053L137.455 74.8975L148.075 119.489Z" fill="#F9E050"/>
</mask>
<g mask="url(#mask0)">
<g filter="url(#filter1_d)">
<path d="M228.876 259.557L289.848 245.036L275.327 184.064L214.354 198.585L228.876 259.557Z" fill="#F9E050"/>
<path d="M103.179 130.181L164.151 115.659L153.531 71.0677L92.5591 85.5889L103.179 130.181Z" fill="#F4F464"/>
<path d="M158.767 164.382L219.739 149.861L205.218 88.8889L144.246 103.41L158.767 164.382ZM24.1121 196.452L69.0071 185.76L58.3149 140.865L13.4199 151.557L24.1121 196.452ZM124.55 219.909L169.445 209.217L158.752 164.322L113.857 175.014L124.55 219.909Z" fill="#F4F464"/>
<path d="M196.8 124.874L257.772 110.353L243.323 49.6839L182.351 64.2051L196.8 124.874Z" fill="#F6842D"/>
<path d="M252.112 159.143L313.085 144.622L298.564 83.6497L237.591 98.1709L252.112 159.143Z" fill="#F4AC2B"/>
<path d="M262.782 203.946L323.755 189.425L309.234 128.452L248.261 142.974L262.782 203.946Z" fill="#F6842D"/>
<path d="M273.497 248.93L334.469 234.409L319.948 173.437L258.976 187.958L273.497 248.93Z" fill="#F4AC2B"/>
<path d="M227.275 53.5069L237.895 98.0986L282.486 87.4786L325.241 266.998L280.346 277.69L291.038 322.585L411.375 293.926C429.454 289.62 444.615 283.829 456.791 276.538C468.981 269.308 478.06 259.516 484.098 247.18C490.135 234.843 493.182 219.372 493.117 200.795C493.067 182.28 489.789 159.5 483.331 132.381C476.814 105.019 469.615 83.2693 461.717 67.1995C453.716 50.8336 444.449 38.8404 433.922 31.25C423.385 23.2922 410.582 18.9068 397.379 18.7326C383.62 18.1629 367.564 20.0634 349.273 24.4198L271.829 42.8638L227.275 53.5069ZM327.436 68.5353L356.466 61.6215C366.476 59.2374 375.426 58.3239 383.195 58.9099C391.243 59.2365 398.837 62.7273 404.325 68.623C410.658 74.4874 416.328 83.4907 421.403 95.649C426.752 107.742 431.9 124.243 436.884 145.173C441.855 166.043 444.666 183.229 445.431 196.67C446.411 209.803 445.436 220.518 442.515 228.842C439.814 236.53 434.598 243.082 427.709 247.434C420.985 251.504 412.766 254.68 402.968 257.013L373.968 263.92L327.436 68.5353Z" fill="#F14D34"/>
<path d="M203.662 153.69L248.557 142.998L237.865 98.1027L192.97 108.795L203.662 153.69Z" fill="#F9E050"/>
<path d="M148.075 119.489L192.97 108.797L182.35 64.2053L137.455 74.8975L148.075 119.489Z" fill="#F9E050"/>
</g>
<rect x="2.7926" y="106.937" width="129.24" height="77.5442" transform="rotate(-13.396 2.7926 106.937)" fill="url(#paint0_linear)"/>
</g>
</g>
<defs>
<filter id="filter0_dd" x="-6.19803" y="0" width="531.066" height="408.189" filterUnits="userSpaceOnUse" color-interpolation-filters="sRGB">
<feFlood flood-opacity="0" result="BackgroundImageFix"/>
<feColorMatrix in="SourceAlpha" type="matrix" values="0 0 0 0 0 0 0 0 0 0 0 0 0 0 0 0 0 0 127 0"/>
<feOffset dy="23.2258"/>
<feGaussianBlur stdDeviation="4.49532"/>
<feColorMatrix type="matrix" values="0 0 0 0 0 0 0 0 0 0.0495833 0 0 0 0 0.145833 0 0 0 0.25 0"/>
<feBlend mode="normal" in2="BackgroundImageFix" result="effect1_dropShadow"/>
<feColorMatrix in="SourceAlpha" type="matrix" values="0 0 0 0 0 0 0 0 0 0 0 0 0 0 0 0 0 0 127 0"/>
<feOffset dy="2.62227"/>
<feColorMatrix type="matrix" values="0 0 0 0 0.2375 0 0 0 0 0.136562 0 0 0 0 0.136562 0 0 0 1 0"/>
<feBlend mode="normal" in2="effect1_dropShadow" result="effect2_dropShadow"/>
<feBlend mode="normal" in="SourceGraphic" in2="effect2_dropShadow" result="shape"/>
</filter>
<filter id="filter1_d" x="0.600307" y="0.000976562" width="524.267" height="397.495" filterUnits="userSpaceOnUse" color-interpolation-filters="sRGB">
<feFlood flood-opacity="0" result="BackgroundImageFix"/>
<feColorMatrix in="SourceAlpha" type="matrix" values="0 0 0 0 0 0 0 0 0 0 0 0 0 0 0 0 0 0 127 0"/>
<feOffset dy="23.2258"/>
<feGaussianBlur stdDeviation="4.49532"/>
<feColorMatrix type="matrix" values="0 0 0 0 0 0 0 0 0 0.0495833 0 0 0 0 0.145833 0 0 0 0.25 0"/>
<feBlend mode="normal" in2="BackgroundImageFix" result="effect1_dropShadow"/>
<feBlend mode="normal" in="SourceGraphic" in2="effect1_dropShadow" result="shape"/>
</filter>
<linearGradient id="paint0_linear" x1="57.673" y1="69.6628" x2="87.6417" y2="162.753" gradientUnits="userSpaceOnUse">
<stop stop-color="white"/>
<stop offset="1" stop-color="white" stop-opacity="0"/>
</linearGradient>
</defs>
</svg>
